<svg id="Capa_1" enable-background="new 0 0 510 510" height="512" viewBox="0 0 510 510" width="512" xmlns="http://www.w3.org/2000/svg"><g><path d="m0 151v208c0 8.284 6.716 15 15 15h18.96c8.284 0 15-6.716 15-15v-208c0-8.284-6.716-15-15-15h-18.96c-8.284 0-15 6.716-15 15z"/><path d="m158 87c0-8.284-6.716-15-15-15h-45.04c-10.493 0-19 8.507-19 19v328c0 10.493 8.507 19 19 19h45.04c8.284 0 15-6.716 15-15v-121.02h33.32v-93.96h-33.32z"/><path d="m352 87v121.02h-33.68v93.96h33.68v121.02c0 8.284 6.716 15 15 15h49c8.284 0 15-6.716 15-15v-336c0-8.284-6.716-15-15-15h-49c-8.284 0-15 6.716-15 15z"/><path d="m495 136h-19c-8.284 0-15 6.716-15 15v208c0 8.284 6.716 15 15 15h19c8.284 0 15-6.716 15-15v-208c0-8.284-6.716-15-15-15z"/><path d="m221.32 208.02h67v93.96h-67z"/></g></svg>